<svg xmlns="http://www.w3.org/2000/svg" width="800" height="440" viewBox="0 0 800 440"><rect width="800" height="440" fill="#111720"/><g stroke="#263343" stroke-width="1"><path d="M80 110H720M80 180H720M80 250H720M80 320H720M180 80V360M290 80V360M400 80V360M510 80V360M620 80V360"/></g><path d="M80 122H720" stroke="#b1c4db" stroke-dasharray="6 9"/><text x="80" y="97" fill="#a8b9d0" font-family="monospace" font-size="14">FIXED CAP</text><path d="M80 310L145 290L200 310L270 240L330 260L390 185L450 205L505 160L575 190L640 145L720 160" fill="none" stroke="#718bad" stroke-width="3"/><path d="M80 330H200V285H330V245H450V215H575V200H720" fill="none" stroke="#a8cdf5" stroke-width="4"/><circle cx="720" cy="200" r="7" fill="#a8cdf5"/><text x="80" y="402" fill="#8b9fb9" font-family="monospace" font-size="14">ORDER CHASER / DRY-RUN SIMULATOR</text></svg>